<svg width="3270" height="1700" xmlns="http://www.w3.org/2000/svg">
    <style type="text/css">
        rect {
            stroke: #000000;
            stroke-width: 5px;
            fill: #9f9;
        }
        .frame {
            stroke-width: 11px;
            fill: #ff0;
        }

        rect.artifact { fill: #eef7ff; }
        rect.frame.artifact { fill: #cdf; }

        rect.black { fill: #eee; }
        rect.frame.black { fill: #777; }

        rect.blue { fill: #eef7ff; }
        rect.frame.blue { fill: #afe6ff; }

        rect.gold { fill: #fec; }
        rect.frame.gold { fill: #fd6; }

        rect.green { fill: #dfe; }
        rect.frame.green { fill: #257f3e; }

        rect.land { fill: #eef7ff; }
        rect.frame.land { fill: #cdf; }

        rect.red { fill: #fdd; }
        rect.frame.red { fill: #f69173; }

        rect.white { fill: #fffcf9; }
        rect.frame.white { fill: #fffeda; }
    </style>

    <g id="artifact">
        <rect class="frame artifact"    x="6"   y="6"   width="388" height="548" />
        <rect class="titlebar artifact" x="20"  y="20"  width="360" height="35" />
        <rect class="artwork artifact"  x="24"  y="55"  width="352" height="220" />
        <rect class="typebar artifact"  x="20"  y="275" width="360" height="33" />
        <rect class="textbox artifact"  x="24"  y="308" width="352" height="200" />
    </g>
    <g id="artifact_creature" transform="translate(0,570)">
        <rect class="frame artifact"    x="6"   y="6"   width="388" height="548" />
        <rect class="titlebar artifact" x="20"  y="20"  width="360" height="35" />
        <rect class="artwork artifact"  x="24"  y="55"  width="352" height="220" />
        <rect class="typebar artifact"  x="20"  y="275" width="360" height="33" />
        <rect class="textbox artifact"  x="24"  y="308" width="352" height="200" />
        <rect class="pt artifact"       x="300" y="500" width="80"  height="33" />
    </g>
    <g id="artifact_enchantment_creature" transform="translate(0,1140)">
        <rect class="frame artifact"    x="6"   y="6"   width="388" height="548" />
        <rect class="titlebar artifact" x="20"  y="20"  width="360" height="35" />
        <rect class="artwork artifact"  x="24"  y="55"  width="352" height="220" />
        <rect class="typebar artifact"  x="20"  y="275" width="360" height="33" />
        <rect class="textbox artifact"  x="24"  y="308" width="352" height="200" />
        <rect class="pt artifact"       x="300" y="500" width="80"  height="33" />
    </g>


    <g id="black" transform="translate(410,0)">
        <rect class="frame black"    x="6"   y="6"   width="388" height="548" />
        <rect class="titlebar black" x="20"  y="20"  width="360" height="35" />
        <rect class="artwork black"  x="24"  y="55"  width="352" height="220" />
        <rect class="typebar black"  x="20"  y="275" width="360" height="33" />
        <rect class="textbox black"  x="24"  y="308" width="352" height="200" />
    </g>
    <g id="black_creature" transform="translate(410,570)">
        <rect class="frame black"    x="6"   y="6"   width="388" height="548" />
        <rect class="titlebar black" x="20"  y="20"  width="360" height="35" />
        <rect class="artwork black"  x="24"  y="55"  width="352" height="220" />
        <rect class="typebar black"  x="20"  y="275" width="360" height="33" />
        <rect class="textbox black"  x="24"  y="308" width="352" height="200" />
        <rect class="pt black"       x="300" y="500" width="80"  height="33" />
    </g>
    <g id="black_enchantment_creature" transform="translate(410,1140)">
        <rect class="frame black"    x="6"   y="6"   width="388" height="548" />
        <rect class="titlebar black" x="20"  y="20"  width="360" height="35" />
        <rect class="artwork black"  x="24"  y="55"  width="352" height="220" />
        <rect class="typebar black"  x="20"  y="275" width="360" height="33" />
        <rect class="textbox black"  x="24"  y="308" width="352" height="200" />
        <rect class="pt black"       x="300" y="500" width="80"  height="33" />
    </g>


    <g id="blue" transform="translate(820,0)">
        <rect class="frame blue"    x="6"   y="6"   width="388" height="548" />
        <rect class="titlebar blue" x="20"  y="20"  width="360" height="35" />
        <rect class="artwork blue"  x="24"  y="55"  width="352" height="220" />
        <rect class="typebar blue"  x="20"  y="275" width="360" height="33" />
        <rect class="textbox blue"  x="24"  y="308" width="352" height="200" />
    </g>
    <g id="blue_creature" transform="translate(820,570)">
        <rect class="frame blue"    x="6"   y="6"   width="388" height="548" />
        <rect class="titlebar blue" x="20"  y="20"  width="360" height="35" />
        <rect class="artwork blue"  x="24"  y="55"  width="352" height="220" />
        <rect class="typebar blue"  x="20"  y="275" width="360" height="33" />
        <rect class="textbox blue"  x="24"  y="308" width="352" height="200" />
        <rect class="pt blue"       x="300" y="500" width="80"  height="33" />
    </g>
    <g id="blue_enchantment_creature" transform="translate(820,1140)">
        <rect class="frame blue"    x="6"   y="6"   width="388" height="548" />
        <rect class="titlebar blue" x="20"  y="20"  width="360" height="35" />
        <rect class="artwork blue"  x="24"  y="55"  width="352" height="220" />
        <rect class="typebar blue"  x="20"  y="275" width="360" height="33" />
        <rect class="textbox blue"  x="24"  y="308" width="352" height="200" />
        <rect class="pt blue"       x="300" y="500" width="80"  height="33" />
    </g>


    <g id="gold" transform="translate(1230,0)">
        <rect class="frame gold"    x="6"   y="6"   width="388" height="548" />
        <rect class="titlebar gold" x="20"  y="20"  width="360" height="35" />
        <rect class="artwork gold"  x="24"  y="55"  width="352" height="220" />
        <rect class="typebar gold"  x="20"  y="275" width="360" height="33" />
        <rect class="textbox gold"  x="24"  y="308" width="352" height="200" />
    </g>
    <g id="gold_creature" transform="translate(1230,570)">
        <rect class="frame gold"    x="6"   y="6"   width="388" height="548" />
        <rect class="titlebar gold" x="20"  y="20"  width="360" height="35" />
        <rect class="artwork gold"  x="24"  y="55"  width="352" height="220" />
        <rect class="typebar gold"  x="20"  y="275" width="360" height="33" />
        <rect class="textbox gold"  x="24"  y="308" width="352" height="200" />
        <rect class="pt gold"       x="300" y="500" width="80"  height="33" />
    </g>
    <g id="gold_enchantment_creature" transform="translate(1230,1140)">
        <rect class="frame gold"    x="6"   y="6"   width="388" height="548" />
        <rect class="titlebar gold" x="20"  y="20"  width="360" height="35" />
        <rect class="artwork gold"  x="24"  y="55"  width="352" height="220" />
        <rect class="typebar gold"  x="20"  y="275" width="360" height="33" />
        <rect class="textbox gold"  x="24"  y="308" width="352" height="200" />
        <rect class="pt gold"       x="300" y="500" width="80"  height="33" />
    </g>


    <g id="green" transform="translate(1640,0)">
        <rect class="frame green"    x="6"   y="6"   width="388" height="548" />
        <rect class="titlebar green" x="20"  y="20"  width="360" height="35" />
        <rect class="artwork green"  x="24"  y="55"  width="352" height="220" />
        <rect class="typebar green"  x="20"  y="275" width="360" height="33" />
        <rect class="textbox green"  x="24"  y="308" width="352" height="200" />
    </g>
    <g id="green_creature" transform="translate(1640,570)">
        <rect class="frame green"    x="6"   y="6"   width="388" height="548" />
        <rect class="titlebar green" x="20"  y="20"  width="360" height="35" />
        <rect class="artwork green"  x="24"  y="55"  width="352" height="220" />
        <rect class="typebar green"  x="20"  y="275" width="360" height="33" />
        <rect class="textbox green"  x="24"  y="308" width="352" height="200" />
        <rect class="pt green"       x="300" y="500" width="80"  height="33" />
    </g>
    <g id="green_enchantment_creature" transform="translate(1640,1140)">
        <rect class="frame green"    x="6"   y="6"   width="388" height="548" />
        <rect class="titlebar green" x="20"  y="20"  width="360" height="35" />
        <rect class="artwork green"  x="24"  y="55"  width="352" height="220" />
        <rect class="typebar green"  x="20"  y="275" width="360" height="33" />
        <rect class="textbox green"  x="24"  y="308" width="352" height="200" />
        <rect class="pt green"       x="300" y="500" width="80"  height="33" />
    </g>


    <g id="land" transform="translate(2050,0)">
        <rect class="frame land"    x="6"   y="6"   width="388" height="548" />
        <rect class="titlebar land" x="20"  y="20"  width="360" height="35" />
        <rect class="artwork land"  x="24"  y="55"  width="352" height="220" />
        <rect class="typebar land"  x="20"  y="275" width="360" height="33" />
        <rect class="textbox land"  x="24"  y="308" width="352" height="200" />
    </g>
    <g id="land_creature" transform="translate(2050,570)">
        <rect class="frame land"    x="6"   y="6"   width="388" height="548" />
        <rect class="titlebar land" x="20"  y="20"  width="360" height="35" />
        <rect class="artwork land"  x="24"  y="55"  width="352" height="220" />
        <rect class="typebar land"  x="20"  y="275" width="360" height="33" />
        <rect class="textbox land"  x="24"  y="308" width="352" height="200" />
        <rect class="pt land"       x="300" y="500" width="80"  height="33" />
    </g>
    <g id="land_enchantment_creature" transform="translate(2050,1140)">
        <rect class="frame land"    x="6"   y="6"   width="388" height="548" />
        <rect class="titlebar land" x="20"  y="20"  width="360" height="35" />
        <rect class="artwork land"  x="24"  y="55"  width="352" height="220" />
        <rect class="typebar land"  x="20"  y="275" width="360" height="33" />
        <rect class="textbox land"  x="24"  y="308" width="352" height="200" />
        <rect class="pt land"       x="300" y="500" width="80"  height="33" />
    </g>


    <g id="red" transform="translate(2460,0)">
        <rect class="frame red"    x="6"   y="6"   width="388" height="548" />
        <rect class="titlebar red" x="20"  y="20"  width="360" height="35" />
        <rect class="artwork red"  x="24"  y="55"  width="352" height="220" />
        <rect class="typebar red"  x="20"  y="275" width="360" height="33" />
        <rect class="textbox red"  x="24"  y="308" width="352" height="200" />
    </g>
    <g id="red_creature" transform="translate(2460,570)">
        <rect class="frame red"    x="6"   y="6"   width="388" height="548" />
        <rect class="titlebar red" x="20"  y="20"  width="360" height="35" />
        <rect class="artwork red"  x="24"  y="55"  width="352" height="220" />
        <rect class="typebar red"  x="20"  y="275" width="360" height="33" />
        <rect class="textbox red"  x="24"  y="308" width="352" height="200" />
        <rect class="pt red"       x="300" y="500" width="80"  height="33" />
    </g>
    <g id="red_enchantment_creature" transform="translate(2460,1140)">
        <rect class="frame red"    x="6"   y="6"   width="388" height="548" />
        <rect class="titlebar red" x="20"  y="20"  width="360" height="35" />
        <rect class="artwork red"  x="24"  y="55"  width="352" height="220" />
        <rect class="typebar red"  x="20"  y="275" width="360" height="33" />
        <rect class="textbox red"  x="24"  y="308" width="352" height="200" />
        <rect class="pt red"       x="300" y="500" width="80"  height="33" />
    </g>


    <g id="white" transform="translate(2870,0)">
        <rect class="frame white"    x="6"   y="6"   width="388" height="548" />
        <rect class="titlebar white" x="20"  y="20"  width="360" height="35" />
        <rect class="artwork white"  x="24"  y="55"  width="352" height="220" />
        <rect class="typebar white"  x="20"  y="275" width="360" height="33" />
        <rect class="textbox white"  x="24"  y="308" width="352" height="200" />
    </g>
    <g id="white_creature" transform="translate(2870,570)">
        <rect class="frame white"    x="6"   y="6"   width="388" height="548" />
        <rect class="titlebar white" x="20"  y="20"  width="360" height="35" />
        <rect class="artwork white"  x="24"  y="55"  width="352" height="220" />
        <rect class="typebar white"  x="20"  y="275" width="360" height="33" />
        <rect class="textbox white"  x="24"  y="308" width="352" height="200" />
        <rect class="pt white"       x="300" y="500" width="80"  height="33" />
    </g>
    <g id="white_enchantment_creature" transform="translate(2870,1140)">
        <rect class="frame white"    x="6"   y="6"   width="388" height="548" />
        <rect class="titlebar white" x="20"  y="20"  width="360" height="35" />
        <rect class="artwork white"  x="24"  y="55"  width="352" height="220" />
        <rect class="typebar white"  x="20"  y="275" width="360" height="33" />
        <rect class="textbox white"  x="24"  y="308" width="352" height="200" />
        <rect class="pt white"       x="300" y="500" width="80"  height="33" />
    </g>
</svg>