<?xml version="1.0" encoding="UTF-8" standalone="no"?>
<svg xmlns="http://www.w3.org/2000/svg" xmlns:xlink="http://www.w3.org/1999/xlink"
     width="875" height="1225">
    <g>
        <g transform="translate(-30 -65) scale(0.6) rotate(-0.1)">
            <image y="0" x="0" height="2160" width="1552"
                   xlink:href="scan_source/xenagos.jpg" />
        </g>
        <rect x="35" y="35" width="805" height="1155" fill="orange" opacity="0.3" />
        <g fill="blue" opacity="0.5">
            <path id="border" d="
                M 75         35
                h 730
                c 0 0 0 0 25 25
                l 1 40
                c 0 0 0 0 -12 15
                c 0 0 0 0 -10 30
                c 0 0 0 0 -4 563
                c 0 0 0 0 27 33
                v 35
                c 0 0 0 0 -10 10
                c 0 0 0 0 -4 4
                v 325

                c 0 0 0 0 -85 43
                c 0 0 0 0 -55 -16

                h -482

                c 0 0 0 0 -55 16
                c 0 0 0 0 -85 -43

                v -325
                c 0 0 0 0 -4 -4
                c 0 0 0 0 -10 -10
                v -35
                c 0 0 0 0 27 -33
                c 0 0 0 0 -4 -563
                c 0 0 0 0 -10 -30
                c 0 0 0 0 -12 -15
                l 1 -40
                c 0 0 0 0 25 -25
                z
            " />
        </g>
        <g fill="yellow" opacity="0.5">
            <path id="title" d="
                M 54 67
                c 0 0 0 0 25 -25
                h 718
                c 0 0 0 0 25 25
                l 1 30
                c 0 0 0 0 -10 10
                h -750
                c 0 0 0 0 -10 -10
                z
            " />
            <path id="artwork" d="
                M 100 117
                h 678
                c 0 0 0 0 15 10
                c 0 0 0 0 5 565
                c 0 0 0 0 -20 16
                h -678
                c 0 0 0 0 -20 -16
                c 0 0 0 0 5 -565
                c 0 0 0 0 15 -10
                z
            " />
            <path id="type" d="
                M 52 743
                c 0 0 0 0 25 -25
                h 720
                c 0 0 0 0 25 25
                l 1 28
                c 0 0 0 0 -10 10
                h -752
                c 0 0 0 0 -10 -10
                z
            " />
            <path id="textbox" d="
                M 122 790
                h 669
                c 0 0 0 0 15 15
                v 299
                c 0 0 0 0 -120 27
                h -459
                c 0 0 0 0 -120 -27
                v -299
                c 0 0 0 0 15 -15
                z
            " />
        </g>
    </g>
</svg>
