<svg width="875" height="1225" xmlns="http://www.w3.org/2000/svg" xmlns:xlink="http://www.w3.org/1999/xlink" font-family="Goudy Old Style">
    <defs>
        <g id="sm-t">
            <svg xmlns="http://www.w3.org/2000/svg" width="22" height="22">
                <circle r="11" cx="11" cy="11" fill="#c5bbb8" />
                <g transform="translate(-1.5 0) scale(0.5)">
                    <g transform="matrix(1,.851,-.851,1,6,25)">
                <text font-family="Goudy Old Style" font-weight="bold" font-size="30px">T</text>
            </g>
                </g>
            </svg>
        </g>
        <g id="sm-1">
            <svg xmlns="http://www.w3.org/2000/svg" width="22" height="22">
                <circle r="11" cx="11" cy="11" fill="#c5bbb8" />
                <g transform="translate(-1.5 0) scale(0.5)">
                    <g transform="matrix(1,0,0,1,15,34)">
                <text font-family="Goudy Old Style" font-weight="bold" font-size="40px">1</text>
            </g>
                </g>
            </svg>
        </g>
        <g id="sm-x">
            <svg xmlns="http://www.w3.org/2000/svg" width="22" height="22">
                <circle r="11" cx="11" cy="11" fill="#c5bbb8" />
                <g transform="translate(-1.5 0) scale(0.5)">
                    <g transform="matrix(0.9,0,0,1,14,34)">
                <text font-family="Goudy Old Style" font-weight="normal" font-size="38px" class="x">X</text>
            </g>
                </g>
            </svg>
        </g>
        <g id="sm-u">
            <svg xmlns="http://www.w3.org/2000/svg" width="22" height="22">
                <circle r="11" cx="11" cy="11" fill="#afe6ff" />
                <g transform="translate(-1.5 0) scale(0.5)">
                    <g transform="matrix(1,0,0,-1,31,21)">
                <path stroke-width="0" fill="#000" d="m 0,0 c -0.134,-0.904 -0.217,-1.755 -0.394,-2.586 -0.259,-1.219 -0.647,-2.413 -0.868,-3.639 -0.263,-1.456 0.761,-2.358 2.195,-2.032 0.828,0.19 1.322,0.734 1.458,1.53 0.399,2.366 -0.33,4.436 -1.782,6.283 C 0.438,-0.227 0.146,-0.104 0,0 m -2.863,17.023 c -0.164,-0.996 -0.285,-1.785 -0.425,-2.57 -0.558,-3.142 0.097,-6.047 1.856,-8.668 1.097,-1.636 2.346,-3.171 3.541,-4.738 2.703,-3.541 3.62,-7.4 1.917,-11.634 -1.784,-4.439 -6.688,-7.171 -11.576,-6.566 -4.541,0.561 -8.078,4.208 -8.859,9.063 -0.739,4.593 0.367,8.783 2.832,12.616 2.784,4.326 5.994,8.324 9.781,11.832 0.234,0.218 0.524,0.376 0.933,0.665" />
            </g>
                </g>
            </svg>
        </g>
        <g id="sm-w">
            <svg xmlns="http://www.w3.org/2000/svg" width="22" height="22">
                <circle r="11" cx="11" cy="11" fill="#fffeda" />
                <g transform="translate(-1.5 0) scale(0.5)">
                    <!-- rays -->
            <g transform="matrix(1,0,0,-1,24.5,13.25)">
                <path stroke-width="0" fill="#000" d="m 0,0 c -2.268,-0.109 -4.875,-0.855 -6.605,-3.232 -2.102,-2.888 -2.086,-5.964 -0.575,-9.199 2.641,-5.652 9.043,-5.885 12.717,-3.553 3.301,2.094 4.693,6.09 3.557,10.063 C 8.064,-2.322 4.711,0.003 0,0 m -2.168,-28.82 c 0.391,0.673 0.795,1.337 1.168,2.017 1.154,2.103 0.869,3.037 -0.703,4.258 -1.608,1.25 -1.686,1.919 -0.928,3.755 0.088,0.213 0.002,0.625 -0.162,0.793 -0.697,0.719 -2.728,0.632 -3.301,-0.172 -0.222,-0.313 -0.291,-0.834 -0.238,-1.234 0.297,-2.225 -0.07,-2.8 -2.332,-2.748 -1.883,0.042 -3.758,0.399 -5.635,0.624 -0.375,0.044 -0.746,0.118 -1.379,0.219 0.533,0.209 0.86,0.337 1.186,0.464 0.822,0.319 1.672,0.582 2.463,0.967 1.568,0.762 1.818,1.195 1.478,2.902 -0.256,1.285 0.219,2.137 1.235,2.803 0.339,0.225 0.689,0.437 1.158,0.733 -0.295,0.57 -0.528,1.189 -0.903,1.707 -0.72,1 -1.787,1.05 -2.679,0.187 -0.274,-0.263 -0.504,-0.567 -0.754,-0.852 -0.858,-0.974 -1.807,-1.153 -2.801,-0.302 -0.754,0.642 -1.375,1.47 -1.943,2.292 -0.838,1.216 -1.578,2.499 -2.442,3.884 0.506,-0.217 0.955,-0.385 1.381,-0.598 0.647,-0.326 1.256,-0.739 1.922,-1.017 1.285,-0.534 1.992,-0.264 2.68,0.924 0.093,0.164 0.177,0.335 0.273,0.498 0.754,1.272 1.475,1.511 2.852,0.951 1.355,-0.549 2.146,-0.015 2.207,1.491 0.064,1.614 -1.604,3.216 -3.176,2.864 -1.104,-0.248 -1.461,0.321 -1.486,1.106 -0.045,1.312 0.045,2.641 0.218,3.944 0.174,1.308 0.522,2.594 0.83,4.065 0.211,-0.638 0.395,-1.155 0.555,-1.68 0.219,-0.723 0.363,-1.474 0.641,-2.174 0.564,-1.43 1.359,-1.702 2.748,-1.02 1.062,0.523 1.955,0.315 2.652,-0.659 0.293,-0.41 0.551,-0.851 0.772,-1.303 0.365,-0.744 0.892,-0.777 1.56,-0.457 1.037,0.497 1.584,1.34 1.694,2.451 C -1.262,3.83 -1.812,4.444 -2.586,4.939 -3.6,5.589 -3.627,5.7 -2.98,6.73 c 0.334,0.531 0.697,1.092 1.179,1.47 1.6,1.259 3.262,2.441 4.901,3.652 C 3.176,11.787 3.254,11.723 3.33,11.657 3.004,11.067 2.697,10.466 2.35,9.889 1.18,7.936 1.266,7.229 2.775,5.512 3.311,4.903 3.85,4.236 4.141,3.499 4.334,3.011 4.227,2.291 4.006,1.781 3.764,1.219 3.855,0.919 4.289,0.59 5.057,0.012 5.875,-0.203 6.764,0.257 7.523,0.65 7.904,1.618 7.752,2.641 7.539,4.076 7.77,4.447 9.225,4.344 11.77,4.163 14.305,3.83 16.844,3.555 16.924,3.546 16.998,3.461 17.193,3.333 16.312,3.098 15.529,2.914 14.764,2.675 14.135,2.479 13.51,2.25 12.912,1.975 12.242,1.665 11.973,1.222 12.217,0.392 12.799,-1.58 12.152,-3.046 10.393,-4.123 10.154,-4.269 9.914,-4.414 9.564,-4.628 c 0.319,-0.474 0.563,-0.951 0.911,-1.332 0.935,-1.019 2.105,-0.891 2.841,0.269 1.059,1.668 2.444,1.864 3.799,0.378 0.821,-0.898 1.436,-1.992 2.092,-3.029 0.588,-0.93 1.105,-1.906 1.76,-3.045 -0.602,0.344 -1.041,0.678 -1.537,0.861 -1.11,0.408 -2.237,0.777 -3.375,1.09 -0.68,0.187 -1.022,-0.253 -1.242,-0.861 -0.637,-1.759 -0.815,-1.855 -2.7,-1.658 -0.283,0.03 -0.578,0.032 -0.843,0.117 -0.598,0.192 -1.219,0.218 -1.489,-0.395 -0.244,-0.561 -0.463,-1.291 -0.308,-1.839 0.451,-1.622 2.121,-2.215 4.318,-1.564 0.096,-0.401 0.293,-0.803 0.262,-1.188 -0.184,-2.261 -0.418,-4.519 -0.645,-6.777 -0.043,-0.425 -0.127,-0.847 -0.394,-1.318 -0.213,0.596 -0.426,1.19 -0.639,1.786 -0.273,0.771 -0.477,1.577 -0.836,2.305 -0.486,0.981 -1.279,1.231 -2.307,0.871 -1.83,-0.643 -2.441,-0.409 -3.371,1.289 -0.709,1.293 -1.582,1.386 -2.593,0.276 -1.024,-1.122 -0.778,-2.761 0.521,-3.507 1.049,-0.601 1.188,-0.783 0.508,-1.746 -0.736,-1.042 -1.676,-1.946 -2.568,-2.87 -0.325,-0.334 -0.764,-0.556 -1.163,-0.814 -0.845,-0.547 -1.699,-1.083 -2.55,-1.624 -0.061,0.045 -0.121,0.089 -0.184,0.133" />
            </g>
            <!-- disc -->
            <circle r="8" cx="25" cy="22"  stroke-width="0" fill="#000" />
                </g>
            </svg>
        </g>
        <g id="sm-r">
            <svg xmlns="http://www.w3.org/2000/svg" width="22" height="22">
                <circle r="11" cx="11" cy="11" fill="#f69173" />
                <g transform="translate(-1.5 0) scale(0.5)">
                    <!-- flame -->
            <g transform="matrix(1,0,0,-1,28.5,36)">
                <path stroke-width="0" fill="#000" d="m 0,0 c 0.252,-1.102 0.938,-1.268 1.675,-1.307 1.419,-0.076 2.839,-0.12 4.259,-0.178 0.14,-0.006 0.281,-0.028 0.633,-0.062 -1.809,-1.128 -3.633,-1.586 -5.502,-1.808 -2.028,-0.242 -4.076,-0.323 -6.114,-0.497 -1.292,-0.11 -2.595,-0.453 -3.868,-0.357 -4.003,0.297 -6.592,2.565 -7.834,6.29 -1.205,3.612 -0.949,7.125 1.435,10.257 1.462,1.922 3.508,2.851 5.896,2.886 1.095,0.016 2.214,-0.16 3.288,-0.401 1.843,-0.414 3.592,-0.192 5.261,0.601 1.478,0.702 2.906,1.511 4.463,2.329 C 3.205,14.533 2.587,11.578 -0.569,9.945 -1.033,9.705 -1.48,9.395 -1.858,9.035 -3,7.953 -2.636,6.455 -1.127,5.993 0.02,5.642 1.074,5.862 2.035,6.588 c 1.756,1.327 2.248,3.183 2.281,5.263 0.019,1.115 0.062,2.237 0.212,3.338 0.128,0.933 0.697,1.609 1.706,2.041 -0.27,-1.666 -1.058,-3.214 -0.037,-4.871 2.165,1.107 1.949,3.321 2.657,5.198 -3.361,1.232 -6.403,2.738 -6.296,7.047 0.322,-0.49 0.603,-1.013 0.977,-1.458 0.354,-0.42 0.805,-0.758 1.232,-1.149 1.432,2.01 10e-4,5.364 -1.683,6.023 -0.554,0.216 -1.27,0.116 -1.892,0.024 -0.408,-0.06 -0.8,-0.331 -1.165,-0.565 -2.054,-1.319 -4.103,-1.092 -6.395,0.084 1.123,0.083 2.021,0.142 2.919,0.22 0.848,0.073 1.942,0.16 2.045,1.065 0.055,0.486 -0.86,1.378 -1.501,1.59 -1.545,0.513 -3.181,0.757 -4.789,1.061 -0.847,0.159 -1.713,0.216 -2.59,0.524 0.379,0.096 0.754,0.222 1.138,0.283 3.178,0.498 6.364,0.621 9.512,-0.136 5.764,-1.383 9.187,-5.233 11.05,-10.674 0.116,-0.341 0.219,-0.686 0.375,-1.179 0.852,1.228 0.688,2.411 0.344,3.556 -0.335,1.114 -0.812,2.186 -1.175,3.3 1.946,-2.113 3.254,-4.563 3.819,-7.386 C 15.478,16.303 14.73,13.191 12.3,10.537 11.021,9.141 9.745,7.742 8.481,6.332 8.241,6.064 8.063,5.741 7.714,5.236 10.629,5.928 13.093,6.95 15.204,9.041 14.98,5.686 12.399,2.73 9.173,2.054 7.201,1.64 5.176,1.479 3.201,1.078 2.107,0.855 1.067,0.368 0,0" />
            </g>
            <!-- upper -->
            <g transform="matrix(1,0,0,-1,14.5,11.5)">
                <path stroke-width="0" fill="#000" d="M 0,0 C -0.138,0.672 -0.275,1.344 -0.448,2.187 -1.494,1.526 -2.44,0.929 -3.563,0.22 -3.441,0.77 -3.425,1.147 -3.277,1.465 -2.284,3.616 -0.675,5.158 1.53,6.006 3.229,6.657 4.366,5.929 4.625,4.199 4.699,3.7 4.592,3.448 4.1,3.316 3.684,3.203 3.279,3.036 2.882,2.864 1.581,2.303 0.527,1.494 0.252,-0.059 L 0,0 z" />
            </g>
            <!-- lower -->
            <g transform="matrix(1,0,0,-1,21.5,10.5)">
                <path stroke-width="0" fill="#000" d="m 0,0 c 0.673,-0.292 1.315,-0.453 1.817,-0.811 1.296,-0.923 1.408,-0.924 2.635,0.049 0.46,0.366 1.056,0.759 1.603,0.779 C 7.148,0.054 7.812,-1.266 7.312,-2.33 6.812,-3.4 5.913,-3.961 4.762,-4.09 3.685,-4.211 2.859,-3.793 2.228,-2.887 1.586,-1.968 0.86,-1.107 0,0" />
            </g>
                </g>
            </svg>
        </g>
        <g id="sm-g">
            <svg xmlns="http://www.w3.org/2000/svg" width="22" height="22">
                <circle r="11" cx="11" cy="11" fill="#89cc9c" />
                <g transform="translate(-1.5 0) scale(0.5)">
                    <g transform="matrix(1,0,0,-1,23,16)">
                <path stroke-width="0" fill="#000" d="m 0,0 c 0.121,-1.11 0.381,-1.458 1.412,-2.021 l 0,1.869 C 0.957,-0.104 0.512,-0.055 0,0 m -4.734,-3.232 c 1.068,-0.219 2.035,-0.416 3.005,-0.615 0.049,0.068 0.098,0.137 0.147,0.205 -0.469,0.485 -0.867,1.228 -1.428,1.382 -0.594,0.165 -1.365,-0.192 -1.724,-0.972 M 6.025,-7.771 c 0.043,-0.073 0.088,-0.146 0.133,-0.219 0.658,0.243 1.307,0.507 1.973,0.722 0.685,0.223 1.385,0.394 2.16,0.611 -0.215,0.299 -0.348,0.588 -0.568,0.764 -0.2,0.161 -0.6,0.354 -0.733,0.265 C 7.979,-6.306 7.01,-7.047 6.025,-7.771 m -0.47,7.767 c 0,-0.801 -0.012,-1.455 0.002,-2.108 0.015,-0.622 0.056,-1.243 0.086,-1.865 0.117,-0.042 0.236,-0.084 0.353,-0.126 0.561,0.778 1.16,1.533 1.656,2.347 0.119,0.195 0,0.757 -0.185,0.875 -0.539,0.344 -1.166,0.551 -1.912,0.877 m -6.297,-9.574 c 0.084,1.325 -0.348,2.169 -1.383,2.766 -1.244,0.718 -2.52,0.749 -3.83,0.003 2.15,-0.064 3.439,-1.76 5.213,-2.769 m 13.23,-10.334 -1.961,0 c -0.021,-0.082 -0.043,-0.164 -0.066,-0.245 0.344,-0.209 0.687,-0.417 1.033,-0.627 0.014,-0.075 0.029,-0.153 0.043,-0.229 -0.498,-0.111 -0.994,-0.306 -1.494,-0.313 -0.57,-0.007 -1.141,0.141 -1.707,0.242 -1.152,0.203 -1.24,0.143 -1.416,-1.049 -0.01,-0.08 -0.031,-0.157 -0.092,-0.471 -0.678,0.42 -1.33,0.731 -1.865,1.183 -1.293,1.09 -1.567,1.395 -2.52,-0.7 -0.068,-0.15 -0.134,-0.297 -0.218,-0.483 -1.137,0.37 -1.038,1.526 -1.649,2.51 -0.601,-0.719 -1.142,-1.367 -1.81,-2.171 -0.182,0.383 -0.459,0.707 -0.477,1.044 -0.049,1.01 -0.691,1.325 -1.514,1.35 -1.177,0.038 -2.359,-0.025 -3.539,-0.043 -0.324,-0.005 -0.648,0 -0.972,0 -0.041,0.074 -0.082,0.147 -0.123,0.221 0.521,0.334 1.002,0.783 1.57,0.98 1.162,0.402 2.373,0.661 3.56,0.998 1.668,0.474 1.719,0.551 1.702,2.257 -0.035,3.412 -1.84,5.293 -5.508,5.747 -1.981,-2.731 -4.25,-3.3 -6.408,-1.603 -1.895,1.488 -1.971,3.685 -0.162,5.9 -0.924,0.915 -1.129,2.072 -0.938,3.31 0.205,1.331 1,2.061 2.16,2.265 0.455,0.808 0.838,1.462 1.188,2.135 0.07,0.137 0.052,0.358 0,0.514 -0.653,1.897 -0.272,3.285 1.213,4.359 1.541,1.116 3.267,1.093 4.804,-0.063 0.063,-0.047 0.135,-0.082 0.254,-0.151 0.176,0.412 0.342,0.805 0.508,1.197 1.586,3.765 6.748,4.376 9.213,1.884 0.666,-0.675 1.219,-1.094 2.414,-0.913 3.6,0.545 5.139,-1.518 5.969,-3.835 0.088,-0.241 0.31,-0.517 0.539,-0.608 1.508,-0.601 1.914,-1.367 1.455,-2.859 3.09,-2.188 3.556,-5.181 2.324,-7.208 0.809,-0.606 1.209,-1.418 1.156,-2.462 -0.049,-0.926 -0.394,-1.671 -1.232,-2.088 -0.82,-0.409 -1.668,-0.379 -2.406,0.204 -0.934,0.739 -1.909,1.342 -3.157,1.117 -1.455,-0.264 -2.931,-0.478 -4.334,-0.919 -0.63,-0.197 -1.324,-0.786 -1.609,-1.382 -0.863,-1.796 -1.109,-3.75 -0.639,-5.703 0.139,-0.572 0.61,-1.308 1.106,-1.5 1.127,-0.435 2.363,-0.589 3.56,-0.832 0.506,-0.103 1.036,-0.105 1.534,-0.234 0.228,-0.058 0.408,-0.313 0.609,-0.478 -0.033,-0.083 -0.066,-0.167 -0.098,-0.248" />
            </g>
                </g>
            </svg>
        </g>
        <g id="sm-b">
            <svg xmlns="http://www.w3.org/2000/svg" width="22" height="22">
                <circle r="11" cx="11" cy="11" fill="#c5bbb8" />
                <g transform="translate(-1.5 0) scale(0.5)">
                    <g transform="matrix(1,0,0,-1,25,29)">
                <path stroke-width="0" fill="#000" d="M 0,0 C -0.146,-0.005 -0.29,-0.009 -0.436,-0.014 -0.52,0.942 -0.606,1.897 -0.689,2.853 -0.77,3.792 -0.849,4.729 -0.928,5.669 -1.027,5.664 -1.127,5.66 -1.228,5.655 -2.586,3.378 -2.956,0.941 -2.453,-1.524 -0.85,-1.595 0.612,-1.66 2.111,-1.727 2.715,0.859 1.973,3.177 0.56,5.569 0.36,3.577 0.18,1.789 0,0 m -6.535,4.528 c 0.686,0.063 1.35,0.085 2.002,0.189 1.415,0.225 2.187,1.395 1.57,2.674 -0.516,1.07 -1.266,2.079 -2.093,2.94 -2.814,2.928 -6.431,0.947 -7.42,-1.738 -0.681,-1.854 0.14,-3.408 2.09,-3.721 1.277,-0.204 2.58,-0.236 3.851,-0.344 M 7.292,4.517 c 1.081,0.097 2.403,0.171 3.711,0.352 1.066,0.147 1.726,0.861 1.836,1.798 0.309,2.623 -2.603,5.404 -5.243,5.147 C 5.317,11.593 3.006,8.626 2.853,6.742 2.766,5.673 3.523,4.778 4.595,4.694 5.411,4.629 6.229,4.585 7.292,4.517 M 6.508,-8.576 C 5.954,-8.708 5.468,-8.817 4.984,-8.938 4.366,-9.093 4.072,-8.835 4.083,-8.22 c 0.016,0.926 0.066,1.852 0.066,2.778 0,0.698 -0.289,1.216 -1.124,1.406 0.199,-1.742 -0.735,-2.682 -2.407,-3.351 0,0.677 0.002,1.24 0,1.802 -0.002,0.395 0.053,0.805 -0.037,1.178 -0.051,0.211 -0.334,0.493 -0.528,0.506 -0.179,0.012 -0.514,-0.268 -0.549,-0.46 -0.207,-1.146 -0.346,-2.302 -0.51,-3.454 -0.015,-0.102 -0.043,-0.2 -0.062,-0.287 -1.466,-0.278 -1.533,-0.223 -1.842,1.126 -0.251,1.099 -0.538,2.188 -0.84,3.407 -0.804,-0.506 -0.872,-1.153 -0.885,-1.802 -0.019,-1.056 -0.006,-2.112 -0.006,-3.151 -1.415,-0.431 -2.377,0.101 -2.411,1.484 -0.039,1.578 0.181,3.16 0.225,4.742 0.028,1.024 0.012,2.06 -0.115,3.074 -0.082,0.655 -0.497,1.053 -1.29,1.141 -1.254,0.139 -2.511,0.389 -3.725,0.739 -2.056,0.592 -3.104,2.106 -3.184,4.177 -0.161,4.182 1.103,7.865 4.122,10.861 0.44,0.436 0.878,0.871 1.429,1.418 0.233,-1.058 0.39,-1.932 0.63,-2.782 0.074,-0.262 0.334,-0.583 0.58,-0.665 1.049,-0.348 2.125,-0.617 3.43,-0.982 -0.683,0.564 -1.196,0.974 -1.695,1.404 -0.821,0.709 -1.435,1.551 -1.63,2.649 -0.155,0.87 0.034,1.648 0.893,1.991 1.192,0.476 2.406,1.004 3.658,1.194 3.329,0.506 6.663,0.493 9.839,-0.852 0.986,-0.416 1.89,-1.022 2.857,-1.556 -0.748,-1.63 -2.389,-1.973 -3.415,-3.106 0.524,0.145 1.057,0.266 1.571,0.44 0.425,0.144 0.83,0.345 1.238,0.535 1.865,0.862 1.901,0.892 3.196,-0.699 2.045,-2.512 3.22,-5.376 3.328,-8.647 C 14.905,7.542 15.043,7.05 15.048,6.555 15.064,5.036 14.409,3.854 13.019,3.243 11.962,2.778 10.821,2.504 9.711,2.167 9.154,1.998 8.579,1.896 8.021,1.733 6.512,1.296 6.467,1.282 6.477,-0.252 6.491,-2.448 6.584,-4.646 6.619,-6.842 6.628,-7.417 6.548,-7.995 6.508,-8.576" />
            </g>
                </g>
            </svg>
        </g>
        <g id="lg-2">
            <svg xmlns="http://www.w3.org/2000/svg" width="47" height="47">
                <circle r="22" cx="22" cy="25" fill="#000" opacity="0.75" />
                <circle r="22" cx="25" cy="22" fill="#c5bbb8" />
                <g transform="matrix(1,0,0,1,15,34)">
                <text font-family="Goudy Old Style" font-weight="bold" font-size="40px">2</text>
            </g>
            </svg>
        </g>
        <g id="lg-u">
            <svg xmlns="http://www.w3.org/2000/svg" width="47" height="47">
                <circle r="22" cx="22" cy="25" fill="#000" opacity="0.75" />
                <circle r="22" cx="25" cy="22" fill="#afe6ff" />
                <g transform="matrix(1,0,0,-1,31,21)">
                <path stroke-width="0" fill="#000" d="m 0,0 c -0.134,-0.904 -0.217,-1.755 -0.394,-2.586 -0.259,-1.219 -0.647,-2.413 -0.868,-3.639 -0.263,-1.456 0.761,-2.358 2.195,-2.032 0.828,0.19 1.322,0.734 1.458,1.53 0.399,2.366 -0.33,4.436 -1.782,6.283 C 0.438,-0.227 0.146,-0.104 0,0 m -2.863,17.023 c -0.164,-0.996 -0.285,-1.785 -0.425,-2.57 -0.558,-3.142 0.097,-6.047 1.856,-8.668 1.097,-1.636 2.346,-3.171 3.541,-4.738 2.703,-3.541 3.62,-7.4 1.917,-11.634 -1.784,-4.439 -6.688,-7.171 -11.576,-6.566 -4.541,0.561 -8.078,4.208 -8.859,9.063 -0.739,4.593 0.367,8.783 2.832,12.616 2.784,4.326 5.994,8.324 9.781,11.832 0.234,0.218 0.524,0.376 0.933,0.665" />
            </g>
            </svg>
        </g>
        <g id="lg-w">
            <svg xmlns="http://www.w3.org/2000/svg" width="47" height="47">
                <circle r="22" cx="22" cy="25" fill="#000" opacity="0.75" />
                <circle r="22" cx="25" cy="22" fill="#fffeda" />
                <!-- rays -->
            <g transform="matrix(1,0,0,-1,24.5,13.25)">
                <path stroke-width="0" fill="#000" d="m 0,0 c -2.268,-0.109 -4.875,-0.855 -6.605,-3.232 -2.102,-2.888 -2.086,-5.964 -0.575,-9.199 2.641,-5.652 9.043,-5.885 12.717,-3.553 3.301,2.094 4.693,6.09 3.557,10.063 C 8.064,-2.322 4.711,0.003 0,0 m -2.168,-28.82 c 0.391,0.673 0.795,1.337 1.168,2.017 1.154,2.103 0.869,3.037 -0.703,4.258 -1.608,1.25 -1.686,1.919 -0.928,3.755 0.088,0.213 0.002,0.625 -0.162,0.793 -0.697,0.719 -2.728,0.632 -3.301,-0.172 -0.222,-0.313 -0.291,-0.834 -0.238,-1.234 0.297,-2.225 -0.07,-2.8 -2.332,-2.748 -1.883,0.042 -3.758,0.399 -5.635,0.624 -0.375,0.044 -0.746,0.118 -1.379,0.219 0.533,0.209 0.86,0.337 1.186,0.464 0.822,0.319 1.672,0.582 2.463,0.967 1.568,0.762 1.818,1.195 1.478,2.902 -0.256,1.285 0.219,2.137 1.235,2.803 0.339,0.225 0.689,0.437 1.158,0.733 -0.295,0.57 -0.528,1.189 -0.903,1.707 -0.72,1 -1.787,1.05 -2.679,0.187 -0.274,-0.263 -0.504,-0.567 -0.754,-0.852 -0.858,-0.974 -1.807,-1.153 -2.801,-0.302 -0.754,0.642 -1.375,1.47 -1.943,2.292 -0.838,1.216 -1.578,2.499 -2.442,3.884 0.506,-0.217 0.955,-0.385 1.381,-0.598 0.647,-0.326 1.256,-0.739 1.922,-1.017 1.285,-0.534 1.992,-0.264 2.68,0.924 0.093,0.164 0.177,0.335 0.273,0.498 0.754,1.272 1.475,1.511 2.852,0.951 1.355,-0.549 2.146,-0.015 2.207,1.491 0.064,1.614 -1.604,3.216 -3.176,2.864 -1.104,-0.248 -1.461,0.321 -1.486,1.106 -0.045,1.312 0.045,2.641 0.218,3.944 0.174,1.308 0.522,2.594 0.83,4.065 0.211,-0.638 0.395,-1.155 0.555,-1.68 0.219,-0.723 0.363,-1.474 0.641,-2.174 0.564,-1.43 1.359,-1.702 2.748,-1.02 1.062,0.523 1.955,0.315 2.652,-0.659 0.293,-0.41 0.551,-0.851 0.772,-1.303 0.365,-0.744 0.892,-0.777 1.56,-0.457 1.037,0.497 1.584,1.34 1.694,2.451 C -1.262,3.83 -1.812,4.444 -2.586,4.939 -3.6,5.589 -3.627,5.7 -2.98,6.73 c 0.334,0.531 0.697,1.092 1.179,1.47 1.6,1.259 3.262,2.441 4.901,3.652 C 3.176,11.787 3.254,11.723 3.33,11.657 3.004,11.067 2.697,10.466 2.35,9.889 1.18,7.936 1.266,7.229 2.775,5.512 3.311,4.903 3.85,4.236 4.141,3.499 4.334,3.011 4.227,2.291 4.006,1.781 3.764,1.219 3.855,0.919 4.289,0.59 5.057,0.012 5.875,-0.203 6.764,0.257 7.523,0.65 7.904,1.618 7.752,2.641 7.539,4.076 7.77,4.447 9.225,4.344 11.77,4.163 14.305,3.83 16.844,3.555 16.924,3.546 16.998,3.461 17.193,3.333 16.312,3.098 15.529,2.914 14.764,2.675 14.135,2.479 13.51,2.25 12.912,1.975 12.242,1.665 11.973,1.222 12.217,0.392 12.799,-1.58 12.152,-3.046 10.393,-4.123 10.154,-4.269 9.914,-4.414 9.564,-4.628 c 0.319,-0.474 0.563,-0.951 0.911,-1.332 0.935,-1.019 2.105,-0.891 2.841,0.269 1.059,1.668 2.444,1.864 3.799,0.378 0.821,-0.898 1.436,-1.992 2.092,-3.029 0.588,-0.93 1.105,-1.906 1.76,-3.045 -0.602,0.344 -1.041,0.678 -1.537,0.861 -1.11,0.408 -2.237,0.777 -3.375,1.09 -0.68,0.187 -1.022,-0.253 -1.242,-0.861 -0.637,-1.759 -0.815,-1.855 -2.7,-1.658 -0.283,0.03 -0.578,0.032 -0.843,0.117 -0.598,0.192 -1.219,0.218 -1.489,-0.395 -0.244,-0.561 -0.463,-1.291 -0.308,-1.839 0.451,-1.622 2.121,-2.215 4.318,-1.564 0.096,-0.401 0.293,-0.803 0.262,-1.188 -0.184,-2.261 -0.418,-4.519 -0.645,-6.777 -0.043,-0.425 -0.127,-0.847 -0.394,-1.318 -0.213,0.596 -0.426,1.19 -0.639,1.786 -0.273,0.771 -0.477,1.577 -0.836,2.305 -0.486,0.981 -1.279,1.231 -2.307,0.871 -1.83,-0.643 -2.441,-0.409 -3.371,1.289 -0.709,1.293 -1.582,1.386 -2.593,0.276 -1.024,-1.122 -0.778,-2.761 0.521,-3.507 1.049,-0.601 1.188,-0.783 0.508,-1.746 -0.736,-1.042 -1.676,-1.946 -2.568,-2.87 -0.325,-0.334 -0.764,-0.556 -1.163,-0.814 -0.845,-0.547 -1.699,-1.083 -2.55,-1.624 -0.061,0.045 -0.121,0.089 -0.184,0.133" />
            </g>
            <!-- disc -->
            <circle r="8" cx="25" cy="22"  stroke-width="0" fill="#000" />
            </svg>
        </g>
        <g id="lg-r">
            <svg xmlns="http://www.w3.org/2000/svg" width="47" height="47">
                <circle r="22" cx="22" cy="25" fill="#000" opacity="0.75" />
                <circle r="22" cx="25" cy="22" fill="#f69173" />
                <!-- flame -->
            <g transform="matrix(1,0,0,-1,28.5,36)">
                <path stroke-width="0" fill="#000" d="m 0,0 c 0.252,-1.102 0.938,-1.268 1.675,-1.307 1.419,-0.076 2.839,-0.12 4.259,-0.178 0.14,-0.006 0.281,-0.028 0.633,-0.062 -1.809,-1.128 -3.633,-1.586 -5.502,-1.808 -2.028,-0.242 -4.076,-0.323 -6.114,-0.497 -1.292,-0.11 -2.595,-0.453 -3.868,-0.357 -4.003,0.297 -6.592,2.565 -7.834,6.29 -1.205,3.612 -0.949,7.125 1.435,10.257 1.462,1.922 3.508,2.851 5.896,2.886 1.095,0.016 2.214,-0.16 3.288,-0.401 1.843,-0.414 3.592,-0.192 5.261,0.601 1.478,0.702 2.906,1.511 4.463,2.329 C 3.205,14.533 2.587,11.578 -0.569,9.945 -1.033,9.705 -1.48,9.395 -1.858,9.035 -3,7.953 -2.636,6.455 -1.127,5.993 0.02,5.642 1.074,5.862 2.035,6.588 c 1.756,1.327 2.248,3.183 2.281,5.263 0.019,1.115 0.062,2.237 0.212,3.338 0.128,0.933 0.697,1.609 1.706,2.041 -0.27,-1.666 -1.058,-3.214 -0.037,-4.871 2.165,1.107 1.949,3.321 2.657,5.198 -3.361,1.232 -6.403,2.738 -6.296,7.047 0.322,-0.49 0.603,-1.013 0.977,-1.458 0.354,-0.42 0.805,-0.758 1.232,-1.149 1.432,2.01 10e-4,5.364 -1.683,6.023 -0.554,0.216 -1.27,0.116 -1.892,0.024 -0.408,-0.06 -0.8,-0.331 -1.165,-0.565 -2.054,-1.319 -4.103,-1.092 -6.395,0.084 1.123,0.083 2.021,0.142 2.919,0.22 0.848,0.073 1.942,0.16 2.045,1.065 0.055,0.486 -0.86,1.378 -1.501,1.59 -1.545,0.513 -3.181,0.757 -4.789,1.061 -0.847,0.159 -1.713,0.216 -2.59,0.524 0.379,0.096 0.754,0.222 1.138,0.283 3.178,0.498 6.364,0.621 9.512,-0.136 5.764,-1.383 9.187,-5.233 11.05,-10.674 0.116,-0.341 0.219,-0.686 0.375,-1.179 0.852,1.228 0.688,2.411 0.344,3.556 -0.335,1.114 -0.812,2.186 -1.175,3.3 1.946,-2.113 3.254,-4.563 3.819,-7.386 C 15.478,16.303 14.73,13.191 12.3,10.537 11.021,9.141 9.745,7.742 8.481,6.332 8.241,6.064 8.063,5.741 7.714,5.236 10.629,5.928 13.093,6.95 15.204,9.041 14.98,5.686 12.399,2.73 9.173,2.054 7.201,1.64 5.176,1.479 3.201,1.078 2.107,0.855 1.067,0.368 0,0" />
            </g>
            <!-- upper -->
            <g transform="matrix(1,0,0,-1,14.5,11.5)">
                <path stroke-width="0" fill="#000" d="M 0,0 C -0.138,0.672 -0.275,1.344 -0.448,2.187 -1.494,1.526 -2.44,0.929 -3.563,0.22 -3.441,0.77 -3.425,1.147 -3.277,1.465 -2.284,3.616 -0.675,5.158 1.53,6.006 3.229,6.657 4.366,5.929 4.625,4.199 4.699,3.7 4.592,3.448 4.1,3.316 3.684,3.203 3.279,3.036 2.882,2.864 1.581,2.303 0.527,1.494 0.252,-0.059 L 0,0 z" />
            </g>
            <!-- lower -->
            <g transform="matrix(1,0,0,-1,21.5,10.5)">
                <path stroke-width="0" fill="#000" d="m 0,0 c 0.673,-0.292 1.315,-0.453 1.817,-0.811 1.296,-0.923 1.408,-0.924 2.635,0.049 0.46,0.366 1.056,0.759 1.603,0.779 C 7.148,0.054 7.812,-1.266 7.312,-2.33 6.812,-3.4 5.913,-3.961 4.762,-4.09 3.685,-4.211 2.859,-3.793 2.228,-2.887 1.586,-1.968 0.86,-1.107 0,0" />
            </g>
            </svg>
        </g>
        <g id="lg-g">
            <svg xmlns="http://www.w3.org/2000/svg" width="47" height="47">
                <circle r="22" cx="22" cy="25" fill="#000" opacity="0.75" />
                <circle r="22" cx="25" cy="22" fill="#89cc9c" />
                <g transform="matrix(1,0,0,-1,23,16)">
                <path stroke-width="0" fill="#000" d="m 0,0 c 0.121,-1.11 0.381,-1.458 1.412,-2.021 l 0,1.869 C 0.957,-0.104 0.512,-0.055 0,0 m -4.734,-3.232 c 1.068,-0.219 2.035,-0.416 3.005,-0.615 0.049,0.068 0.098,0.137 0.147,0.205 -0.469,0.485 -0.867,1.228 -1.428,1.382 -0.594,0.165 -1.365,-0.192 -1.724,-0.972 M 6.025,-7.771 c 0.043,-0.073 0.088,-0.146 0.133,-0.219 0.658,0.243 1.307,0.507 1.973,0.722 0.685,0.223 1.385,0.394 2.16,0.611 -0.215,0.299 -0.348,0.588 -0.568,0.764 -0.2,0.161 -0.6,0.354 -0.733,0.265 C 7.979,-6.306 7.01,-7.047 6.025,-7.771 m -0.47,7.767 c 0,-0.801 -0.012,-1.455 0.002,-2.108 0.015,-0.622 0.056,-1.243 0.086,-1.865 0.117,-0.042 0.236,-0.084 0.353,-0.126 0.561,0.778 1.16,1.533 1.656,2.347 0.119,0.195 0,0.757 -0.185,0.875 -0.539,0.344 -1.166,0.551 -1.912,0.877 m -6.297,-9.574 c 0.084,1.325 -0.348,2.169 -1.383,2.766 -1.244,0.718 -2.52,0.749 -3.83,0.003 2.15,-0.064 3.439,-1.76 5.213,-2.769 m 13.23,-10.334 -1.961,0 c -0.021,-0.082 -0.043,-0.164 -0.066,-0.245 0.344,-0.209 0.687,-0.417 1.033,-0.627 0.014,-0.075 0.029,-0.153 0.043,-0.229 -0.498,-0.111 -0.994,-0.306 -1.494,-0.313 -0.57,-0.007 -1.141,0.141 -1.707,0.242 -1.152,0.203 -1.24,0.143 -1.416,-1.049 -0.01,-0.08 -0.031,-0.157 -0.092,-0.471 -0.678,0.42 -1.33,0.731 -1.865,1.183 -1.293,1.09 -1.567,1.395 -2.52,-0.7 -0.068,-0.15 -0.134,-0.297 -0.218,-0.483 -1.137,0.37 -1.038,1.526 -1.649,2.51 -0.601,-0.719 -1.142,-1.367 -1.81,-2.171 -0.182,0.383 -0.459,0.707 -0.477,1.044 -0.049,1.01 -0.691,1.325 -1.514,1.35 -1.177,0.038 -2.359,-0.025 -3.539,-0.043 -0.324,-0.005 -0.648,0 -0.972,0 -0.041,0.074 -0.082,0.147 -0.123,0.221 0.521,0.334 1.002,0.783 1.57,0.98 1.162,0.402 2.373,0.661 3.56,0.998 1.668,0.474 1.719,0.551 1.702,2.257 -0.035,3.412 -1.84,5.293 -5.508,5.747 -1.981,-2.731 -4.25,-3.3 -6.408,-1.603 -1.895,1.488 -1.971,3.685 -0.162,5.9 -0.924,0.915 -1.129,2.072 -0.938,3.31 0.205,1.331 1,2.061 2.16,2.265 0.455,0.808 0.838,1.462 1.188,2.135 0.07,0.137 0.052,0.358 0,0.514 -0.653,1.897 -0.272,3.285 1.213,4.359 1.541,1.116 3.267,1.093 4.804,-0.063 0.063,-0.047 0.135,-0.082 0.254,-0.151 0.176,0.412 0.342,0.805 0.508,1.197 1.586,3.765 6.748,4.376 9.213,1.884 0.666,-0.675 1.219,-1.094 2.414,-0.913 3.6,0.545 5.139,-1.518 5.969,-3.835 0.088,-0.241 0.31,-0.517 0.539,-0.608 1.508,-0.601 1.914,-1.367 1.455,-2.859 3.09,-2.188 3.556,-5.181 2.324,-7.208 0.809,-0.606 1.209,-1.418 1.156,-2.462 -0.049,-0.926 -0.394,-1.671 -1.232,-2.088 -0.82,-0.409 -1.668,-0.379 -2.406,0.204 -0.934,0.739 -1.909,1.342 -3.157,1.117 -1.455,-0.264 -2.931,-0.478 -4.334,-0.919 -0.63,-0.197 -1.324,-0.786 -1.609,-1.382 -0.863,-1.796 -1.109,-3.75 -0.639,-5.703 0.139,-0.572 0.61,-1.308 1.106,-1.5 1.127,-0.435 2.363,-0.589 3.56,-0.832 0.506,-0.103 1.036,-0.105 1.534,-0.234 0.228,-0.058 0.408,-0.313 0.609,-0.478 -0.033,-0.083 -0.066,-0.167 -0.098,-0.248" />
            </g>
            </svg>
        </g>
        <g id="lg-b">
            <svg xmlns="http://www.w3.org/2000/svg" width="47" height="47">
                <circle r="22" cx="22" cy="25" fill="#000" opacity="0.75" />
                <circle r="22" cx="25" cy="22" fill="#c5bbb8" />
                <g transform="matrix(1,0,0,-1,25,29)">
                <path stroke-width="0" fill="#000" d="M 0,0 C -0.146,-0.005 -0.29,-0.009 -0.436,-0.014 -0.52,0.942 -0.606,1.897 -0.689,2.853 -0.77,3.792 -0.849,4.729 -0.928,5.669 -1.027,5.664 -1.127,5.66 -1.228,5.655 -2.586,3.378 -2.956,0.941 -2.453,-1.524 -0.85,-1.595 0.612,-1.66 2.111,-1.727 2.715,0.859 1.973,3.177 0.56,5.569 0.36,3.577 0.18,1.789 0,0 m -6.535,4.528 c 0.686,0.063 1.35,0.085 2.002,0.189 1.415,0.225 2.187,1.395 1.57,2.674 -0.516,1.07 -1.266,2.079 -2.093,2.94 -2.814,2.928 -6.431,0.947 -7.42,-1.738 -0.681,-1.854 0.14,-3.408 2.09,-3.721 1.277,-0.204 2.58,-0.236 3.851,-0.344 M 7.292,4.517 c 1.081,0.097 2.403,0.171 3.711,0.352 1.066,0.147 1.726,0.861 1.836,1.798 0.309,2.623 -2.603,5.404 -5.243,5.147 C 5.317,11.593 3.006,8.626 2.853,6.742 2.766,5.673 3.523,4.778 4.595,4.694 5.411,4.629 6.229,4.585 7.292,4.517 M 6.508,-8.576 C 5.954,-8.708 5.468,-8.817 4.984,-8.938 4.366,-9.093 4.072,-8.835 4.083,-8.22 c 0.016,0.926 0.066,1.852 0.066,2.778 0,0.698 -0.289,1.216 -1.124,1.406 0.199,-1.742 -0.735,-2.682 -2.407,-3.351 0,0.677 0.002,1.24 0,1.802 -0.002,0.395 0.053,0.805 -0.037,1.178 -0.051,0.211 -0.334,0.493 -0.528,0.506 -0.179,0.012 -0.514,-0.268 -0.549,-0.46 -0.207,-1.146 -0.346,-2.302 -0.51,-3.454 -0.015,-0.102 -0.043,-0.2 -0.062,-0.287 -1.466,-0.278 -1.533,-0.223 -1.842,1.126 -0.251,1.099 -0.538,2.188 -0.84,3.407 -0.804,-0.506 -0.872,-1.153 -0.885,-1.802 -0.019,-1.056 -0.006,-2.112 -0.006,-3.151 -1.415,-0.431 -2.377,0.101 -2.411,1.484 -0.039,1.578 0.181,3.16 0.225,4.742 0.028,1.024 0.012,2.06 -0.115,3.074 -0.082,0.655 -0.497,1.053 -1.29,1.141 -1.254,0.139 -2.511,0.389 -3.725,0.739 -2.056,0.592 -3.104,2.106 -3.184,4.177 -0.161,4.182 1.103,7.865 4.122,10.861 0.44,0.436 0.878,0.871 1.429,1.418 0.233,-1.058 0.39,-1.932 0.63,-2.782 0.074,-0.262 0.334,-0.583 0.58,-0.665 1.049,-0.348 2.125,-0.617 3.43,-0.982 -0.683,0.564 -1.196,0.974 -1.695,1.404 -0.821,0.709 -1.435,1.551 -1.63,2.649 -0.155,0.87 0.034,1.648 0.893,1.991 1.192,0.476 2.406,1.004 3.658,1.194 3.329,0.506 6.663,0.493 9.839,-0.852 0.986,-0.416 1.89,-1.022 2.857,-1.556 -0.748,-1.63 -2.389,-1.973 -3.415,-3.106 0.524,0.145 1.057,0.266 1.571,0.44 0.425,0.144 0.83,0.345 1.238,0.535 1.865,0.862 1.901,0.892 3.196,-0.699 2.045,-2.512 3.22,-5.376 3.328,-8.647 C 14.905,7.542 15.043,7.05 15.048,6.555 15.064,5.036 14.409,3.854 13.019,3.243 11.962,2.778 10.821,2.504 9.711,2.167 9.154,1.998 8.579,1.896 8.021,1.733 6.512,1.296 6.467,1.282 6.477,-0.252 6.491,-2.448 6.584,-4.646 6.619,-6.842 6.628,-7.417 6.548,-7.995 6.508,-8.576" />
            </g>
            </svg>
        </g>
    </defs>
    <g>
        <!-- frame dimensions -->
        <image width="875" height="1225" xlink:href="../resources/assets/print/frames/green_creature.png" />
    </g>
    <!-- x translation is x + width - icon-width * icon-count -->
    <g transform="translate(516 79)">
        <use xlink:href="#lg-2" transform="translate(0 0)" />
        <use xlink:href="#lg-w" transform="translate(47 0)" />
        <use xlink:href="#lg-u" transform="translate(94 0)" />
        <use xlink:href="#lg-b" transform="translate(141 0)" />
        <use xlink:href="#lg-r" transform="translate(188 0)" />
        <use xlink:href="#lg-g" transform="translate(235 0)" />
    </g>
    <!-- y translation is (y + font-size - descent) -->
    <g transform="translate(81 118) scale(.76 1)" class="title">
        <text font-size="49" font-weight="bold">Barney of the Green Woods</text>
    </g>
    <g transform="translate(77 147) scale(1.11)" class="title">
        <image width="650" height="477" xlink:href="../../test/resources/artwork/barney_fake.png" />
    </g>
    <g transform="translate(84 735)" class="typebar">
        <g transform="scale(.69 1)">
            <text font-size="48" font-weight="bold">Legendary Enchantment Creature &#x2014; Human Legend</text>
        </g>
    </g>
    <!-- 23 per line, 35 (1.5 * line-height) per paragraph -->
    <g transform="translate(84 780) scale(1.82)" font-size="20">
        <g transform="translate(0 0)">
            <!-- 13 is the estimated ascent of 20 font -->
            <g transform="translate(0 13)">
                <text>Indestructable, hexproof</text>
            </g>
        </g>
        <g transform="translate(0 35)">
            <g transform="scale(.82)">
                <use xlink:href="#sm-1" />
                <use xlink:href="#sm-u" x="24" />
                <use xlink:href="#sm-g" x="48" />
                <use xlink:href="#sm-t" x="72" />
            </g>
            <g transform="translate(80 13)">
                <text>: Every opponent dies in a fire unless</text>
            </g>
        </g>
        <g transform="translate(0 58)">
            <g transform="translate(0 13)">
                <text>all pay </text>
            </g>
            <g transform="translate(55 0) scale(.82)">
                <use xlink:href="#sm-x" />
                <use xlink:href="#sm-u" x="24" />
                <use xlink:href="#sm-b" x="48" />
                <use xlink:href="#sm-g" x="72" />
            </g>
            <g transform="translate(136 13)">
                <text> or </text>
            </g>
            <g transform="translate(159 0) scale(.82)">
                <use xlink:href="#sm-x" />
                <use xlink:href="#sm-r" x="24" />
                <use xlink:href="#sm-b" x="48" />
                <use xlink:href="#sm-w" x="72" />
            </g>
            <g transform="translate(239 13)">
                <text> or </text>
            </g>
            <g transform="translate(261 0) scale(.82)">
                <use xlink:href="#sm-x" />
                <use xlink:href="#sm-x" x="24" />
                <use xlink:href="#sm-b" x="48" />
            </g>
            <g transform="translate(322 13)">
                <text>where</text>
            </g>
        </g>
        <g transform="translate(0 81)">
            <g transform="translate(0 13)">
                <text>X equals your life total.</text>
            </g>
        </g>
        <g transform="translate(0 116)">
            <g transform="translate(0 13)">
                <text font-style="italic">For the first time in his life, Barney felt warm.</text>
            </g>
        </g>
        <g transform="translate(0 139)">
            <g transform="translate(0 13)">
                <text font-style="italic">And hungry.</text>
            </g>
        </g>
    </g>
    <g transform="translate(696 1137)" class="pt">
        <text font-size="45" font-weight="bold">0/1</text>
    </g>
    <g transform="translate(138 1140)" class="artist">
        <text font-size="29" font-weight="bold">Dolores Boisvert</text>
    </g>
    <g transform="translate(70 1163)" class="footer">
        <text font-size="22">&#x00a9; 2014 Barney Boisvert (5/5)</text>
    </g>
</svg>
