<svg width="2.5in" height="3.5in" xmlns="http://www.w3.org/2000/svg" xmlns:xlink="http://www.w3.org/1999/xlink" viewBox="0 0 875 1225">
    <defs>
        <path id="-title" d="
            M 0 -40
            h 377
            c 18 20 18 60 0 80
            h -754
            c -18 -20 -18 -60 0 -80
            z
        " />
        <path id="-art" d="
            M 0 -277.5
            h 377
            v 555
            h -754
            v -555
            z
        " />
        <path id="-type" d="
            M 0 -40
            h 377
            c 15 20 15 55 0 75
            h -754
            c -15 -20 -15 -55 0 -75
            z
        " />
        <path id="-text" d="
            M 0 -175
            h 377
            v 350
            h -754
            v -350
            z
        " />
        <path id="-pt" d="
            M 0 -31
            h 68
            c 7 20 7 42 0 62
            h -136
            c -7 -20 -7 -42 0 -62
            z
        " />
        <!-- pullout and pushin are identical, just with flipped around coords -->
        <filter id="pulloutFilter">
            <feGaussianBlur in="SourceAlpha" stdDeviation="4" result="blur" />
            <feOffset dy="4" dx="-4" />
            <feComposite in2="SourceAlpha" operator="arithmetic" k2="-1" k3="1" result="hlDiff" />
            <feFlood flood-color="white" flood-opacity="1" />
            <feComposite in2="hlDiff" operator="in" />
            <feComposite in2="SourceGraphic" operator="over" result="withGlow" />

            <feOffset in="blur" dy="-4" dx="4" />
            <feComposite in2="SourceAlpha" operator="arithmetic" k2="-1" k3="1" result="shadowDiff" />
            <feFlood flood-color="black" flood-opacity="1" />
            <feComposite in2="shadowDiff" operator="in" />
            <feComposite in2="withGlow" operator="over" />
        </filter>
        <filter id="pushinFilter">
            <feGaussianBlur in="SourceAlpha" stdDeviation="4" result="blur" />
            <feOffset dy="-4" dx="4" />
            <feComposite in2="SourceAlpha" operator="arithmetic" k2="-1" k3="1" result="hlDiff" />
            <feFlood flood-color="white" flood-opacity="1" />
            <feComposite in2="hlDiff" operator="in" />
            <feComposite in2="SourceGraphic" operator="over" result="withGlow" />

            <feOffset in="blur" dy="4" dx="-4" />
            <feComposite in2="SourceAlpha" operator="arithmetic" k2="-1" k3="1" result="shadowDiff" />
            <feFlood flood-color="black" flood-opacity="1" />
            <feComposite in2="shadowDiff" operator="in" />
            <feComposite in2="withGlow" operator="over" />
        </filter>

        <pattern id="bar" patternUnits="userSpaceOnUse" height="240" width="240">
            <image x="-10" y="-10" width="256" height="256" xlink:href="metal.jpg" />
        </pattern>

        <pattern id="enchantmentFrame" patternUnits="userSpaceOnUse" height="480" width="640">
            <image width="640" height="480" xlink:href="starfield.jpg" opacity=".6" />
        </pattern>

        <pattern id="whiteFrame" patternUnits="userSpaceOnUse" height="600" width="600">
            <image width="600" height="600" xlink:href="white.jpg" />
        </pattern>

        <pattern id="whiteTextbox" patternUnits="userSpaceOnUse" height="480" width="640">
            <image width="640" height="480" xlink:href="cloud.jpg" />
            <rect width="640" height="480" fill="#fffafc" opacity=".8" />
        </pattern>

        <pattern id="redFrame" patternUnits="userSpaceOnUse" height="400" width="640">
            <image width="640" height="400" xlink:href="red.jpg" />
        </pattern>

        <pattern id="redTextbox" patternUnits="userSpaceOnUse" height="400" width="640">
            <image width="640" height="400" xlink:href="red.jpg" />
            <rect width="640" height="400" fill="#fee" opacity=".8" />
        </pattern>

        <filter id="dropFilter">
            <feGaussianBlur in="SourceAlpha" stdDeviation="3" />
            <feOffset dx="-5" dy="5" result="shadow" />
            <feFlood flood-color="#000" />
            <feComposite in2="shadow" operator="in" />
            <feMerge>
                <feMergeNode />
                <feMergeNode />
                <feMergeNode in="SourceGraphic" />
            </feMerge>
        </filter>

        <filter id="ptDropFilter" filterUnits="objectBoundingBox" height="140%">
            <feGaussianBlur in="SourceAlpha" stdDeviation="5" />
            <feOffset dx="-4" dy="7" result="shadow" />
            <feFlood flood-color="#000" />
            <feComposite in2="shadow" operator="in" />
            <feMerge>
                <feMergeNode />
                <feMergeNode in="SourceGraphic" />
            </feMerge>
        </filter>

        <linearGradient id="redWhite">
            <stop offset=".4" stop-color="#f00" />
            <stop offset=".6" stop-color="#fff" />
        </linearGradient>

        <linearGradient id="frameRightGradient">
            <stop offset=".4" stop-color="white" stop-opacity="0" />
            <stop offset=".6" stop-color="white" stop-opacity="1" />
        </linearGradient>
        <mask id="frameRightMask">
            <rect width="100%" height="100%" fill="url(#frameRightGradient)" />
        </mask>

        <linearGradient id="frameTopGradient" gradientTransform="rotate(90)">
            <stop offset=".5" stop-color="white" stop-opacity="1" />
            <stop offset=".8" stop-color="white" stop-opacity="0" />
        </linearGradient>
        <mask id="frameTopMask">
            <rect width="100%" height="100%" fill="url(#frameTopGradient)" />
        </mask>

        <linearGradient id="textboxRightGradient">
            <stop offset=".4" stop-color="white" stop-opacity="0" />
            <stop offset=".6" stop-color="white" stop-opacity="1" />
        </linearGradient>
        <mask id="textboxRightMask">
            <rect x="-377" y="-175" width="754" height="350" fill="url(#textboxRightGradient)" />
        </mask>
    </defs>
    <g>
        <rect width="875" height="1225" fill="#000" />
        <rect x="35" y="35" width="805" height="1155" fill="url(#redFrame)" />
        <rect x="35" y="35" width="805" height="1155" fill="url(#whiteFrame)" mask="url(#frameRightMask)" />
        <rect x="35" y="35" width="805" height="1155" fill="url(#enchantmentFrame)" mask="url(#frameTopMask)" />
        <!-- border drop shadow -->
        <g filter="url(#dropFilter)" fill="none" stroke="#fff" stroke-width="5">
            <use xlink:href="#-title" x="439" y="92" />
            <use xlink:href="#-art" x="439" y="409.5" />
            <use xlink:href="#-type" x="439" y="727" />
            <use xlink:href="#-text" x="439" y="937" />
        </g>

        <!-- title bar -->
        <g transform="translate(439 92)">
            <g transform="scale(.993 .93)">
                <g filter="url(#pulloutFilter)">
                    <use xlink:href="#-title" fill="url(#bar)" />
                </g>
                <use xlink:href="#-title" stroke="#000" stroke-width="5" fill="none" />
            </g>
        </g>

        <!-- artwork hole -->
        <use xlink:href="#-art" x="439" y="409.5" fill="#000" />

        <!-- type bar -->
        <g transform="translate(439 727)">
            <g transform="scale(.993 .93)">
                <g filter="url(#pulloutFilter)">
                    <use xlink:href="#-type" fill="url(#bar)" />
                </g>
                <use xlink:href="#-type" stroke="#000" stroke-width="5" fill="none" />
            </g>
        </g>

        <!-- textbox -->
        <g transform="translate(439 937)">
            <g transform="scale(.9934 .9857)">
                <g filter="url(#pushinFilter)">
                    <use xlink:href="#-text" fill="url(#redTextbox)" />
                    <use xlink:href="#-text" fill="url(#whiteTextbox)" mask="url(#textboxRightMask)" />
                </g>
            </g>
        </g>

        <!-- actual border -->
        <g fill="none" stroke="url(#redWhite)" stroke-width="5">
            <use xlink:href="#-title" x="439" y="92" />
            <use xlink:href="#-art" x="439" y="409.5" />
            <use xlink:href="#-type" x="439" y="727" />
            <use xlink:href="#-text" x="439" y="937" />
        </g>

        <!-- power/toughness block -->
        <g transform="translate(742 1135)" filter="url(#ptDropFilter)">
            <g transform="scale(.975 .93)">
                <g filter="url(#pushinFilter)">
                    <use xlink:href="#-pt" fill="url(#bar)" />
                </g>
                <!--<use xlink:href="#-pt" stroke="#000" stroke-width="3" fill="none" />-->
            </g>
            <g transform="scale(1.04 1.08)">
                <use xlink:href="#-pt" stroke="#000" stroke-width="3" fill="none" />
            </g>
            <g fill="none" stroke="#fff" stroke-width="4">
                <use xlink:href="#-pt" />
            </g>
        </g>

        <!-- card content -->
        <g id="card-content">
            <g id="casting-cost" transform="translate(760 65) scale(1.2)">
                <g transform="translate(0 0)">
                    <svg xmlns="http://www.w3.org/2000/svg" width="45" height="47">
                        <circle r="22" cx="22" cy="25" fill="#000" opacity="0.75" />
                        <circle r="22" cx="23" cy="22" fill="#fffeda" />
                        <g transform="translate(-2 0)" id="white-mana-icon">
                            <!-- rays -->
                    <g transform="matrix(1,0,0,-1,24.5,13.25)">
                        <path stroke-width="0" fill="#000" d="m 0,0 c -2.268,-0.109 -4.875,-0.855 -6.605,-3.232 -2.102,-2.888 -2.086,-5.964 -0.575,-9.199 2.641,-5.652 9.043,-5.885 12.717,-3.553 3.301,2.094 4.693,6.09 3.557,10.063 C 8.064,-2.322 4.711,0.003 0,0 m -2.168,-28.82 c 0.391,0.673 0.795,1.337 1.168,2.017 1.154,2.103 0.869,3.037 -0.703,4.258 -1.608,1.25 -1.686,1.919 -0.928,3.755 0.088,0.213 0.002,0.625 -0.162,0.793 -0.697,0.719 -2.728,0.632 -3.301,-0.172 -0.222,-0.313 -0.291,-0.834 -0.238,-1.234 0.297,-2.225 -0.07,-2.8 -2.332,-2.748 -1.883,0.042 -3.758,0.399 -5.635,0.624 -0.375,0.044 -0.746,0.118 -1.379,0.219 0.533,0.209 0.86,0.337 1.186,0.464 0.822,0.319 1.672,0.582 2.463,0.967 1.568,0.762 1.818,1.195 1.478,2.902 -0.256,1.285 0.219,2.137 1.235,2.803 0.339,0.225 0.689,0.437 1.158,0.733 -0.295,0.57 -0.528,1.189 -0.903,1.707 -0.72,1 -1.787,1.05 -2.679,0.187 -0.274,-0.263 -0.504,-0.567 -0.754,-0.852 -0.858,-0.974 -1.807,-1.153 -2.801,-0.302 -0.754,0.642 -1.375,1.47 -1.943,2.292 -0.838,1.216 -1.578,2.499 -2.442,3.884 0.506,-0.217 0.955,-0.385 1.381,-0.598 0.647,-0.326 1.256,-0.739 1.922,-1.017 1.285,-0.534 1.992,-0.264 2.68,0.924 0.093,0.164 0.177,0.335 0.273,0.498 0.754,1.272 1.475,1.511 2.852,0.951 1.355,-0.549 2.146,-0.015 2.207,1.491 0.064,1.614 -1.604,3.216 -3.176,2.864 -1.104,-0.248 -1.461,0.321 -1.486,1.106 -0.045,1.312 0.045,2.641 0.218,3.944 0.174,1.308 0.522,2.594 0.83,4.065 0.211,-0.638 0.395,-1.155 0.555,-1.68 0.219,-0.723 0.363,-1.474 0.641,-2.174 0.564,-1.43 1.359,-1.702 2.748,-1.02 1.062,0.523 1.955,0.315 2.652,-0.659 0.293,-0.41 0.551,-0.851 0.772,-1.303 0.365,-0.744 0.892,-0.777 1.56,-0.457 1.037,0.497 1.584,1.34 1.694,2.451 C -1.262,3.83 -1.812,4.444 -2.586,4.939 -3.6,5.589 -3.627,5.7 -2.98,6.73 c 0.334,0.531 0.697,1.092 1.179,1.47 1.6,1.259 3.262,2.441 4.901,3.652 C 3.176,11.787 3.254,11.723 3.33,11.657 3.004,11.067 2.697,10.466 2.35,9.889 1.18,7.936 1.266,7.229 2.775,5.512 3.311,4.903 3.85,4.236 4.141,3.499 4.334,3.011 4.227,2.291 4.006,1.781 3.764,1.219 3.855,0.919 4.289,0.59 5.057,0.012 5.875,-0.203 6.764,0.257 7.523,0.65 7.904,1.618 7.752,2.641 7.539,4.076 7.77,4.447 9.225,4.344 11.77,4.163 14.305,3.83 16.844,3.555 16.924,3.546 16.998,3.461 17.193,3.333 16.312,3.098 15.529,2.914 14.764,2.675 14.135,2.479 13.51,2.25 12.912,1.975 12.242,1.665 11.973,1.222 12.217,0.392 12.799,-1.58 12.152,-3.046 10.393,-4.123 10.154,-4.269 9.914,-4.414 9.564,-4.628 c 0.319,-0.474 0.563,-0.951 0.911,-1.332 0.935,-1.019 2.105,-0.891 2.841,0.269 1.059,1.668 2.444,1.864 3.799,0.378 0.821,-0.898 1.436,-1.992 2.092,-3.029 0.588,-0.93 1.105,-1.906 1.76,-3.045 -0.602,0.344 -1.041,0.678 -1.537,0.861 -1.11,0.408 -2.237,0.777 -3.375,1.09 -0.68,0.187 -1.022,-0.253 -1.242,-0.861 -0.637,-1.759 -0.815,-1.855 -2.7,-1.658 -0.283,0.03 -0.578,0.032 -0.843,0.117 -0.598,0.192 -1.219,0.218 -1.489,-0.395 -0.244,-0.561 -0.463,-1.291 -0.308,-1.839 0.451,-1.622 2.121,-2.215 4.318,-1.564 0.096,-0.401 0.293,-0.803 0.262,-1.188 -0.184,-2.261 -0.418,-4.519 -0.645,-6.777 -0.043,-0.425 -0.127,-0.847 -0.394,-1.318 -0.213,0.596 -0.426,1.19 -0.639,1.786 -0.273,0.771 -0.477,1.577 -0.836,2.305 -0.486,0.981 -1.279,1.231 -2.307,0.871 -1.83,-0.643 -2.441,-0.409 -3.371,1.289 -0.709,1.293 -1.582,1.386 -2.593,0.276 -1.024,-1.122 -0.778,-2.761 0.521,-3.507 1.049,-0.601 1.188,-0.783 0.508,-1.746 -0.736,-1.042 -1.676,-1.946 -2.568,-2.87 -0.325,-0.334 -0.764,-0.556 -1.163,-0.814 -0.845,-0.547 -1.699,-1.083 -2.55,-1.624 -0.061,0.045 -0.121,0.089 -0.184,0.133" />
                    </g>
                    <!-- disc -->
                    <circle r="8" cx="25" cy="22"  stroke-width="0" fill="#000" />
                        </g>
                    </svg>
                </g>
                <g transform="translate(-47 0)">
                    <svg xmlns="http://www.w3.org/2000/svg" width="45" height="47">
                        <circle r="22" cx="22" cy="25" fill="#000" opacity="0.75" />
                        <circle r="22" cx="23" cy="22" fill="#f69173" />
                        <g transform="translate(-2 0)" id="red-mana-icon">
                            <!-- flame -->
                    <g transform="matrix(1,0,0,-1,28.5,36)">
                        <path stroke-width="0" fill="#000" d="m 0,0 c 0.252,-1.102 0.938,-1.268 1.675,-1.307 1.419,-0.076 2.839,-0.12 4.259,-0.178 0.14,-0.006 0.281,-0.028 0.633,-0.062 -1.809,-1.128 -3.633,-1.586 -5.502,-1.808 -2.028,-0.242 -4.076,-0.323 -6.114,-0.497 -1.292,-0.11 -2.595,-0.453 -3.868,-0.357 -4.003,0.297 -6.592,2.565 -7.834,6.29 -1.205,3.612 -0.949,7.125 1.435,10.257 1.462,1.922 3.508,2.851 5.896,2.886 1.095,0.016 2.214,-0.16 3.288,-0.401 1.843,-0.414 3.592,-0.192 5.261,0.601 1.478,0.702 2.906,1.511 4.463,2.329 C 3.205,14.533 2.587,11.578 -0.569,9.945 -1.033,9.705 -1.48,9.395 -1.858,9.035 -3,7.953 -2.636,6.455 -1.127,5.993 0.02,5.642 1.074,5.862 2.035,6.588 c 1.756,1.327 2.248,3.183 2.281,5.263 0.019,1.115 0.062,2.237 0.212,3.338 0.128,0.933 0.697,1.609 1.706,2.041 -0.27,-1.666 -1.058,-3.214 -0.037,-4.871 2.165,1.107 1.949,3.321 2.657,5.198 -3.361,1.232 -6.403,2.738 -6.296,7.047 0.322,-0.49 0.603,-1.013 0.977,-1.458 0.354,-0.42 0.805,-0.758 1.232,-1.149 1.432,2.01 10e-4,5.364 -1.683,6.023 -0.554,0.216 -1.27,0.116 -1.892,0.024 -0.408,-0.06 -0.8,-0.331 -1.165,-0.565 -2.054,-1.319 -4.103,-1.092 -6.395,0.084 1.123,0.083 2.021,0.142 2.919,0.22 0.848,0.073 1.942,0.16 2.045,1.065 0.055,0.486 -0.86,1.378 -1.501,1.59 -1.545,0.513 -3.181,0.757 -4.789,1.061 -0.847,0.159 -1.713,0.216 -2.59,0.524 0.379,0.096 0.754,0.222 1.138,0.283 3.178,0.498 6.364,0.621 9.512,-0.136 5.764,-1.383 9.187,-5.233 11.05,-10.674 0.116,-0.341 0.219,-0.686 0.375,-1.179 0.852,1.228 0.688,2.411 0.344,3.556 -0.335,1.114 -0.812,2.186 -1.175,3.3 1.946,-2.113 3.254,-4.563 3.819,-7.386 C 15.478,16.303 14.73,13.191 12.3,10.537 11.021,9.141 9.745,7.742 8.481,6.332 8.241,6.064 8.063,5.741 7.714,5.236 10.629,5.928 13.093,6.95 15.204,9.041 14.98,5.686 12.399,2.73 9.173,2.054 7.201,1.64 5.176,1.479 3.201,1.078 2.107,0.855 1.067,0.368 0,0" />
                    </g>
                    <!-- upper -->
                    <g transform="matrix(1,0,0,-1,14.5,11.5)">
                        <path stroke-width="0" fill="#000" d="M 0,0 C -0.138,0.672 -0.275,1.344 -0.448,2.187 -1.494,1.526 -2.44,0.929 -3.563,0.22 -3.441,0.77 -3.425,1.147 -3.277,1.465 -2.284,3.616 -0.675,5.158 1.53,6.006 3.229,6.657 4.366,5.929 4.625,4.199 4.699,3.7 4.592,3.448 4.1,3.316 3.684,3.203 3.279,3.036 2.882,2.864 1.581,2.303 0.527,1.494 0.252,-0.059 L 0,0 z" />
                    </g>
                    <!-- lower -->
                    <g transform="matrix(1,0,0,-1,21.5,10.5)">
                        <path stroke-width="0" fill="#000" d="m 0,0 c 0.673,-0.292 1.315,-0.453 1.817,-0.811 1.296,-0.923 1.408,-0.924 2.635,0.049 0.46,0.366 1.056,0.759 1.603,0.779 C 7.148,0.054 7.812,-1.266 7.312,-2.33 6.812,-3.4 5.913,-3.961 4.762,-4.09 3.685,-4.211 2.859,-3.793 2.228,-2.887 1.586,-1.968 0.86,-1.107 0,0" />
                    </g>
                        </g>
                    </svg>
                </g>
                <g transform="translate(-94 0)">
                    <svg xmlns="http://www.w3.org/2000/svg" width="45" height="47">
                        <defs>
                            <clipPath id="top-half">
                                <rect width="47" height="22" />
                            </clipPath>
                        </defs>
                        <circle r="22" cx="22" cy="25" fill="#000" opacity="0.75" />
                        <g transform="rotate(-45 23 22)">
                            <circle r="22" cx="23" cy="22" fill="#fffeda" />
                            <circle r="22" cx="23" cy="22" fill="#f69173" clip-path="url(#top-half)" />
                        </g>
                        <g transform="scale(.45)">
                            <use xlink:href="#red-mana-icon" x="10" y="10" />
                            <use xlink:href="#white-mana-icon" x="45" y="45" />
                        </g>
                    </svg>
                </g>
            </g>
        </g>

    </g>
    <!--<g opacity="1" transform="translate(900 0)">-->
        <!--<image width="875" height="1225" xlink:href="../resources/assets/print/frames/white_creature.png" />-->
    <!--</g>-->
</svg>