<svg xmlns="http://www.w3.org/2000/svg" xmlns:xlink="http://www.w3.org/1999/xlink" width="60" height="40">
    <defs>
        <linearGradient id="grad" gradientTransform="translate(-30 0) rotate(-30)" gradientUnits="userSpaceOnUse">
            <stop offset="0" stop-color="#54707E" />
            <stop offset="0.5" stop-color="#C8E2EF" />
            <stop offset="1" stop-color="#54707E" />
        </linearGradient>
    </defs>
    <g fill="url(#grad)">
        <!-- field -->
        <svg xmlns="http://www.w3.org/2000/svg" xmlns:xlink="http://www.w3.org/1999/xlink" width="60" height="40">
            <g transform="translate(30 20)">
                <path d="
                    M 0 -20
                    h 25
                    c 6 10 6 30 0 40
                    h -50
                    c -6 -10 -6 -30 0 -40
                    z
                " />
            </g>
        </svg>
    </g>
    <g fill="#000">
        <!-- symbol -->
        <svg xmlns="http://www.w3.org/2000/svg" xmlns:xlink="http://www.w3.org/1999/xlink" width="60" height="40">
            <defs>
                <path id="path" d="
                    M 0 -20
                    h 25
                    c 6 10 6 30 0 40
                    h -50
                    c -6 -10 -6 -30 0 -40
                    z
                " />
                <mask id="mask">
                    <use xlink:href="#path" fill="#fff" />
                    <g transform="scale(0.9 0.84)">
                        <use xlink:href="#path" fill="#000" />
                    </g>
                </mask>
            </defs>
            <g transform="translate(30 20)">
                <g transform="scale(0.94 0.9)">
                    <use xlink:href="#path" mask="url(#mask)" />
                </g>
            </g>
            <g>
                <g transform="matrix(1,0,0,1.3,0,0)">
                    <path d="M11.1562 20.1035 L11.1562 11.0566 Q11.1562 9.5097 10.6797 8.7832 Q10.2031 8.0566 9.2031 8.0566 Q8.7031 8.0566 8.7031 7.791 Q8.7031 7.5253 9.2031 7.5253 Q10.2969 7.5253 10.8125 7.541 Q11.1875 7.5722 11.1875 7.5722 Q11.7344 7.5722 12.2188 7.541 L13.5938 7.4628 Q14.2344 7.4316 14.8125 7.4316 Q18.5156 7.4316 20.0547 8.4628 Q21.5938 9.4941 21.5938 11.291 Q21.5938 13.166 19.9844 14.1972 L19.4688 14.541 Q19.2812 14.6503 19.2969 14.7128 Q19.2969 14.8378 19.9219 14.9628 Q21.2656 15.2597 22.1328 16.3691 Q23 17.4785 23 18.9316 Q23 21.0878 21.3438 22.4863 Q19.6875 23.8847 16.1406 23.8847 L15.2031 23.8535 L14.0625 23.8066 L13.0781 23.7441 Q12.1094 23.6816 11.5312 23.6816 Q11.5312 23.6816 11.5312 23.7285 Q10.9688 23.8066 9.7188 23.8066 Q9.375 23.8066 9.375 23.541 Q9.375 23.3378 9.75 23.291 Q10.7812 23.1503 10.9844 22.1972 Q11.1562 21.3535 11.1562 20.1035 ZM14.3125 14.6191 L15.875 14.6191 Q18.9375 14.6191 18.9375 11.9628 Q18.9375 10.3378 17.6328 9.2207 Q16.3281 8.1035 14.4062 8.1035 Q14.4062 8.1035 14.2188 8.3378 Q14.0312 8.5722 14.0312 9.291 L14.0312 13.9941 Q14.0312 14.4003 14.1719 14.5097 Q14.3125 14.6191 14.3125 14.6191 ZM13.7031 15.4472 Q13.7031 15.4472 13.8125 15.5253 Q13.9219 15.6035 13.9219 15.8847 L13.9219 21.3066 L14 21.8378 L14.0781 22.3066 Q14.25 22.8066 14.9609 23.0253 Q15.6719 23.2441 16.1719 23.2441 Q18.0781 23.2441 19.1406 22.2753 Q20.2031 21.3066 20.2031 19.5722 Q20.2031 17.791 19.0391 16.6191 Q17.875 15.4472 16.1094 15.4472 L13.7031 15.4472 ZM30.7942 18.5097 L30.7942 17.0566 Q30.7942 15.6972 30.2629 15.1816 Q29.5598 14.4785 28.3567 14.4785 Q27.7473 14.4785 27.7473 15.791 Q27.7473 16.1816 27.9036 16.6816 Q27.9817 16.9003 27.9973 17.0566 Q28.0129 17.2753 26.7473 17.2753 Q26.1692 17.2753 25.7004 17.041 Q25.2317 16.8066 25.2317 16.5253 Q25.2317 15.791 26.0598 14.9472 Q27.1536 13.8222 28.9661 13.8222 Q31.6379 13.8222 32.552 14.5253 Q33.4661 15.2285 33.4661 16.5253 L33.4661 21.1191 Q33.4661 22.2128 33.7395 22.6738 Q34.0129 23.1347 34.0129 23.1347 Q34.0129 23.1347 34.0129 23.1035 Q34.1692 23.0566 34.2473 23.0566 Q35.4192 22.9785 35.4192 23.2128 Q35.4192 23.4316 34.8645 23.6503 Q34.3098 23.8691 32.7629 23.8691 Q31.7629 23.8691 31.2786 23.1816 Q30.1848 23.9628 27.6848 23.9628 Q26.5286 23.9628 25.8489 23.3691 Q25.1692 22.7753 25.1692 21.791 Q25.1692 20.4316 26.4504 19.6894 Q27.7317 18.9472 30.7942 18.5097 ZM30.7942 19.0566 Q29.8879 19.1191 28.8489 19.7832 Q27.8098 20.4472 27.8098 21.4785 Q27.8098 22.291 28.302 22.7675 Q28.7942 23.2441 28.7942 23.2441 Q29.6692 23.2441 30.3567 22.5878 Q30.7942 22.1816 30.7942 21.291 L30.7942 19.0566 ZM39.0178 20.1035 L39.0178 11.0566 Q39.0178 9.5097 38.5413 8.7832 Q38.0647 8.0566 37.0647 8.0566 Q36.5647 8.0566 36.5647 7.791 Q36.5647 7.5253 37.0647 7.5253 Q38.1584 7.5253 38.6741 7.541 Q39.0491 7.5722 39.0491 7.5722 Q39.5959 7.5722 40.0803 7.541 L41.4553 7.4628 Q42.0959 7.4316 42.6741 7.4316 Q46.3772 7.4316 47.9163 8.4628 Q49.4553 9.4941 49.4553 11.291 Q49.4553 13.166 47.8459 14.1972 L47.3303 14.541 Q47.1428 14.6503 47.1584 14.7128 Q47.1584 14.8378 47.7834 14.9628 Q49.1272 15.2597 49.9944 16.3691 Q50.8616 17.4785 50.8616 18.9316 Q50.8616 21.0878 49.2053 22.4863 Q47.5491 23.8847 44.0022 23.8847 L43.0647 23.8535 L41.9241 23.8066 L40.9397 23.7441 Q39.9709 23.6816 39.3928 23.6816 Q39.3928 23.6816 39.3928 23.7285 Q38.8303 23.8066 37.5803 23.8066 Q37.2366 23.8066 37.2366 23.541 Q37.2366 23.3378 37.6116 23.291 Q38.6428 23.1503 38.8459 22.1972 Q39.0178 21.3535 39.0178 20.1035 ZM42.1741 14.6191 L43.7366 14.6191 Q46.7991 14.6191 46.7991 11.9628 Q46.7991 10.3378 45.4944 9.2207 Q44.1897 8.1035 42.2678 8.1035 Q42.2678 8.1035 42.0803 8.3378 Q41.8928 8.5722 41.8928 9.291 L41.8928 13.9941 Q41.8928 14.4003 42.0334 14.5097 Q42.1741 14.6191 42.1741 14.6191 ZM41.5647 15.4472 Q41.5647 15.4472 41.6741 15.5253 Q41.7834 15.6035 41.7834 15.8847 L41.7834 21.3066 L41.8616 21.8378 L41.9397 22.3066 Q42.1116 22.8066 42.8225 23.0253 Q43.5334 23.2441 44.0334 23.2441 Q45.9397 23.2441 47.0022 22.2753 Q48.0647 21.3066 48.0647 19.5722 Q48.0647 17.791 46.9006 16.6191 Q45.7366 15.4472 43.9709 15.4472 L41.5647 15.4472 Z" stroke="none" />
                </g>
            </g>
        </svg>
    </g>
</svg>
